<svg width="244" height="50" viewBox="0 0 244 50" fill="none" xmlns="http://www.w3.org/2000/svg">
<rect width="244" height="50" rx="8" fill="#FAAF3A"/>
<path d="M80.9453 27.0156C80.9453 26.5729 80.7891 26.2344 80.4766 26C80.1641 25.7604 79.6016 25.5104 78.7891 25.25C77.9766 24.9844 77.3333 24.724 76.8594 24.4688C75.5677 23.7708 74.9219 22.8307 74.9219 21.6484C74.9219 21.0339 75.0938 20.487 75.4375 20.0078C75.7865 19.5234 76.2839 19.1458 76.9297 18.875C77.5807 18.6042 78.3099 18.4688 79.1172 18.4688C79.9297 18.4688 80.6536 18.6172 81.2891 18.9141C81.9245 19.2057 82.4167 19.6198 82.7656 20.1562C83.1198 20.6927 83.2969 21.3021 83.2969 21.9844H80.9531C80.9531 21.4635 80.7891 21.0599 80.4609 20.7734C80.1328 20.4818 79.6719 20.3359 79.0781 20.3359C78.5052 20.3359 78.0599 20.4583 77.7422 20.7031C77.4245 20.9427 77.2656 21.2604 77.2656 21.6562C77.2656 22.026 77.4505 22.3359 77.8203 22.5859C78.1953 22.8359 78.7448 23.0703 79.4688 23.2891C80.8021 23.6901 81.7734 24.1875 82.3828 24.7812C82.9922 25.375 83.2969 26.1146 83.2969 27C83.2969 27.9844 82.9245 28.7578 82.1797 29.3203C81.4349 29.8776 80.4323 30.1562 79.1719 30.1562C78.2969 30.1562 77.5 29.9974 76.7812 29.6797C76.0625 29.3568 75.513 28.9167 75.1328 28.3594C74.7578 27.8021 74.5703 27.1562 74.5703 26.4219H76.9219C76.9219 27.6771 77.6719 28.3047 79.1719 28.3047C79.7292 28.3047 80.1641 28.1927 80.4766 27.9688C80.7891 27.7396 80.9453 27.4219 80.9453 27.0156ZM87.125 30H84.8594V21.5469H87.125V30ZM84.7266 19.3594C84.7266 19.0208 84.8385 18.7422 85.0625 18.5234C85.2917 18.3047 85.6016 18.1953 85.9922 18.1953C86.3776 18.1953 86.6849 18.3047 86.9141 18.5234C87.1432 18.7422 87.2578 19.0208 87.2578 19.3594C87.2578 19.7031 87.1406 19.9844 86.9062 20.2031C86.6771 20.4219 86.3724 20.5312 85.9922 20.5312C85.612 20.5312 85.3047 20.4219 85.0703 20.2031C84.8411 19.9844 84.7266 19.7031 84.7266 19.3594ZM88.6641 25.7109C88.6641 24.4141 88.9714 23.3698 89.5859 22.5781C90.2057 21.7865 91.0391 21.3906 92.0859 21.3906C93.013 21.3906 93.7344 21.7083 94.25 22.3438L94.3438 21.5469H96.3906V29.7188C96.3906 30.4583 96.2214 31.1016 95.8828 31.6484C95.5495 32.1953 95.0781 32.612 94.4688 32.8984C93.8594 33.1849 93.1458 33.3281 92.3281 33.3281C91.7083 33.3281 91.1042 33.2031 90.5156 32.9531C89.9271 32.7083 89.4818 32.3906 89.1797 32L90.1797 30.625C90.7422 31.2552 91.4245 31.5703 92.2266 31.5703C92.8255 31.5703 93.2917 31.4089 93.625 31.0859C93.9583 30.7682 94.125 30.3151 94.125 29.7266V29.2734C93.6042 29.862 92.9193 30.1562 92.0703 30.1562C91.0547 30.1562 90.2318 29.7604 89.6016 28.9688C88.9766 28.1719 88.6641 27.1172 88.6641 25.8047V25.7109ZM90.9219 25.875C90.9219 26.6406 91.0755 27.2422 91.3828 27.6797C91.6901 28.112 92.112 28.3281 92.6484 28.3281C93.3359 28.3281 93.8281 28.0703 94.125 27.5547V24C93.8229 23.4844 93.3359 23.2266 92.6641 23.2266C92.1224 23.2266 91.6953 23.4479 91.3828 23.8906C91.0755 24.3333 90.9219 24.9948 90.9219 25.875ZM100.211 21.5469L100.281 22.5234C100.885 21.7682 101.695 21.3906 102.711 21.3906C103.607 21.3906 104.273 21.6536 104.711 22.1797C105.148 22.7057 105.372 23.4922 105.383 24.5391V30H103.125V24.5938C103.125 24.1146 103.021 23.7682 102.812 23.5547C102.604 23.3359 102.258 23.2266 101.773 23.2266C101.138 23.2266 100.661 23.4974 100.344 24.0391V30H98.0859V21.5469H100.211ZM113.469 30H111.203V21.5469H113.469V30ZM111.07 19.3594C111.07 19.0208 111.182 18.7422 111.406 18.5234C111.635 18.3047 111.945 18.1953 112.336 18.1953C112.721 18.1953 113.029 18.3047 113.258 18.5234C113.487 18.7422 113.602 19.0208 113.602 19.3594C113.602 19.7031 113.484 19.9844 113.25 20.2031C113.021 20.4219 112.716 20.5312 112.336 20.5312C111.956 20.5312 111.648 20.4219 111.414 20.2031C111.185 19.9844 111.07 19.7031 111.07 19.3594ZM117.414 21.5469L117.484 22.5234C118.089 21.7682 118.898 21.3906 119.914 21.3906C120.81 21.3906 121.477 21.6536 121.914 22.1797C122.352 22.7057 122.576 23.4922 122.586 24.5391V30H120.328V24.5938C120.328 24.1146 120.224 23.7682 120.016 23.5547C119.807 23.3359 119.461 23.2266 118.977 23.2266C118.341 23.2266 117.865 23.4974 117.547 24.0391V30H115.289V21.5469H117.414ZM135.641 26.9297L136.75 21.5469H138.93L136.773 30H134.883L133.281 24.6797L131.68 30H129.797L127.641 21.5469H129.82L130.922 26.9219L132.469 21.5469H134.102L135.641 26.9297ZM142.438 30H140.172V21.5469H142.438V30ZM140.039 19.3594C140.039 19.0208 140.151 18.7422 140.375 18.5234C140.604 18.3047 140.914 18.1953 141.305 18.1953C141.69 18.1953 141.997 18.3047 142.227 18.5234C142.456 18.7422 142.57 19.0208 142.57 19.3594C142.57 19.7031 142.453 19.9844 142.219 20.2031C141.99 20.4219 141.685 20.5312 141.305 20.5312C140.924 20.5312 140.617 20.4219 140.383 20.2031C140.154 19.9844 140.039 19.7031 140.039 19.3594ZM147.008 19.4688V21.5469H148.453V23.2031H147.008V27.4219C147.008 27.7344 147.068 27.9583 147.188 28.0938C147.307 28.2292 147.536 28.2969 147.875 28.2969C148.125 28.2969 148.346 28.2786 148.539 28.2422V29.9531C148.096 30.0885 147.641 30.1562 147.172 30.1562C145.589 30.1562 144.781 29.3568 144.75 27.7578V23.2031H143.516V21.5469H144.75V19.4688H147.008ZM151.914 22.4688C152.513 21.75 153.266 21.3906 154.172 21.3906C156.005 21.3906 156.935 22.4557 156.961 24.5859V30H154.703V24.6484C154.703 24.1641 154.599 23.8073 154.391 23.5781C154.182 23.3438 153.836 23.2266 153.352 23.2266C152.69 23.2266 152.211 23.4818 151.914 23.9922V30H149.656V18H151.914V22.4688ZM172.055 30H169.711V25.125H165.141V30H162.797V18.625H165.141V23.2344H169.711V18.625H172.055V30ZM178.859 30C178.755 29.7969 178.68 29.5443 178.633 29.2422C178.086 29.8516 177.375 30.1562 176.5 30.1562C175.672 30.1562 174.984 29.9167 174.438 29.4375C173.896 28.9583 173.625 28.3542 173.625 27.625C173.625 26.7292 173.956 26.0417 174.617 25.5625C175.284 25.0833 176.245 24.8411 177.5 24.8359H178.539V24.3516C178.539 23.9609 178.438 23.6484 178.234 23.4141C178.036 23.1797 177.721 23.0625 177.289 23.0625C176.909 23.0625 176.609 23.1536 176.391 23.3359C176.177 23.5182 176.07 23.7682 176.07 24.0859H173.812C173.812 23.5964 173.964 23.1432 174.266 22.7266C174.568 22.3099 174.995 21.9844 175.547 21.75C176.099 21.5104 176.719 21.3906 177.406 21.3906C178.448 21.3906 179.273 21.6536 179.883 22.1797C180.497 22.7005 180.805 23.4349 180.805 24.3828V28.0469C180.81 28.849 180.922 29.4557 181.141 29.8672V30H178.859ZM176.992 28.4297C177.326 28.4297 177.633 28.3568 177.914 28.2109C178.195 28.0599 178.404 27.8594 178.539 27.6094V26.1562H177.695C176.565 26.1562 175.964 26.5469 175.891 27.3281L175.883 27.4609C175.883 27.7422 175.982 27.974 176.18 28.1562C176.378 28.3385 176.648 28.4297 176.992 28.4297ZM187.117 27.6641C187.117 27.388 186.979 27.1719 186.703 27.0156C186.432 26.8542 185.995 26.7109 185.391 26.5859C183.38 26.1641 182.375 25.3099 182.375 24.0234C182.375 23.2734 182.685 22.6484 183.305 22.1484C183.93 21.6432 184.745 21.3906 185.75 21.3906C186.823 21.3906 187.68 21.6432 188.32 22.1484C188.966 22.6536 189.289 23.3099 189.289 24.1172H187.031C187.031 23.7943 186.927 23.5286 186.719 23.3203C186.51 23.1068 186.185 23 185.742 23C185.362 23 185.068 23.0859 184.859 23.2578C184.651 23.4297 184.547 23.6484 184.547 23.9141C184.547 24.1641 184.664 24.3672 184.898 24.5234C185.138 24.6745 185.539 24.8073 186.102 24.9219C186.664 25.0312 187.138 25.1562 187.523 25.2969C188.716 25.7344 189.312 26.4922 189.312 27.5703C189.312 28.3411 188.982 28.9661 188.32 29.4453C187.659 29.9193 186.805 30.1562 185.758 30.1562C185.049 30.1562 184.419 30.0312 183.867 29.7812C183.32 29.526 182.891 29.1797 182.578 28.7422C182.266 28.2995 182.109 27.8229 182.109 27.3125H184.25C184.271 27.7135 184.419 28.0208 184.695 28.2344C184.971 28.4479 185.341 28.5547 185.805 28.5547C186.237 28.5547 186.562 28.474 186.781 28.3125C187.005 28.1458 187.117 27.9297 187.117 27.6641ZM193.477 19.4688V21.5469H194.922V23.2031H193.477V27.4219C193.477 27.7344 193.536 27.9583 193.656 28.0938C193.776 28.2292 194.005 28.2969 194.344 28.2969C194.594 28.2969 194.815 28.2786 195.008 28.2422V29.9531C194.565 30.0885 194.109 30.1562 193.641 30.1562C192.057 30.1562 191.25 29.3568 191.219 27.7578V23.2031H189.984V21.5469H191.219V19.4688H193.477ZM200.07 30.1562C198.831 30.1562 197.82 29.776 197.039 29.0156C196.263 28.2552 195.875 27.2422 195.875 25.9766V25.7578C195.875 24.9089 196.039 24.151 196.367 23.4844C196.695 22.8125 197.159 22.2969 197.758 21.9375C198.362 21.5729 199.049 21.3906 199.82 21.3906C200.977 21.3906 201.885 21.7552 202.547 22.4844C203.214 23.2135 203.547 24.2474 203.547 25.5859V26.5078H198.164C198.237 27.0599 198.456 27.5026 198.82 27.8359C199.19 28.1693 199.656 28.3359 200.219 28.3359C201.089 28.3359 201.768 28.0208 202.258 27.3906L203.367 28.6328C203.029 29.112 202.57 29.487 201.992 29.7578C201.414 30.0234 200.773 30.1562 200.07 30.1562ZM199.812 23.2188C199.365 23.2188 199 23.3698 198.719 23.6719C198.443 23.974 198.266 24.4062 198.188 24.9688H201.328V24.7891C201.318 24.2891 201.182 23.9036 200.922 23.6328C200.661 23.3568 200.292 23.2188 199.812 23.2188Z" fill="#18192F"/>
<rect x="6" y="6" width="38" height="38" rx="6" fill="#18192F"/>
<path d="M33.1569 20.7352C34.3503 22.1296 34.9474 24.0271 34.9474 26.4269V37H28.5991V27.2377C28.5991 26.1788 28.3224 25.3518 27.769 24.7568C27.2153 24.1623 26.4718 23.865 25.5388 23.865C24.5834 23.865 23.8239 24.173 23.26 24.7892C22.6953 25.4054 22.4133 26.2544 22.4133 27.3353V37H16V13H22.4133V21.854C22.9345 20.8811 23.694 20.1028 24.6924 19.519C25.6905 18.935 26.8624 18.6431 28.2085 18.6431C30.3134 18.6431 31.9629 19.3404 33.1569 20.7352Z" fill="#FAAF3A"/>
</svg>
